<svg xmlns="http://www.w3.org/2000/svg" xmlns:xlink="http://www.w3.org/1999/xlink" viewBox="0 0 1962 1648.55"><defs><style>.cls-1{fill:none;}.cls-2{fill:#f4f4f4;}.cls-3{clip-path:url(#clip-path);}.cls-4{font-size:26.49px;fill:#6d7b80;font-family:Poppins-Regular, Poppins Regular;}.cls-5{letter-spacing:0.16em;}.cls-6{letter-spacing:-0.01em;}.cls-7{letter-spacing:-0.01em;}.cls-8{letter-spacing:0.16em;}.cls-9{letter-spacing:0.02em;}.cls-10{letter-spacing:0em;}.cls-11{letter-spacing:-0.04em;}.cls-12{letter-spacing:-0.02em;}.cls-13{letter-spacing:-0.01em;}.cls-14{letter-spacing:-0.01em;}.cls-15{letter-spacing:0em;}.cls-16{letter-spacing:-0.02em;}.cls-17{letter-spacing:0.05em;}.cls-18{letter-spacing:0.01em;}.cls-19{letter-spacing:-0.01em;}.cls-20{letter-spacing:0.05em;}.cls-21{letter-spacing:0em;}.cls-22{letter-spacing:0em;}.cls-23{letter-spacing:-0.01em;}.cls-24{font-family:Poppins-SemiBold, Poppins SemiBold;font-weight:600;}.cls-25{letter-spacing:-0.03em;}.cls-26{letter-spacing:-0.03em;}.cls-27{letter-spacing:-0.01em;}.cls-28{letter-spacing:0.02em;}.cls-29{letter-spacing:-0.01em;}.cls-30{fill:#dee0e0;}</style><clipPath id="clip-path" transform="translate(0 535.77)"><rect class="cls-1" width="1954.87" height="1112.41"/></clipPath></defs><g id="Capa_2" data-name="Capa 2"><g id="Capa_1-2" data-name="Capa 1"><rect class="cls-2" y="535.77" width="1962" height="1112.41"/><g class="cls-3"><text class="cls-4" transform="translate(1214.28 22.17)">¡Hola!<tspan class="cls-5" x="63.01" y="0"> </tspan><tspan x="72.79" y="0">Bie</tspan><tspan class="cls-6" x="106.62" y="0">n</tspan><tspan class="cls-7" x="120.97" y="0">v</tspan><tspan x="133.45" y="0">enido</tspan><tspan class="cls-5" x="197.09" y="0"> </tspan><tspan x="206.87" y="0">a</tspan><tspan class="cls-8" x="219.64" y="0"> </tspan><tspan x="229.42" y="0">mi</tspan><tspan class="cls-5" x="257.71" y="0"> </tspan><tspan x="267.49" y="0">po</tspan><tspan class="cls-9" x="297.1" y="0">r</tspan><tspan x="306.4" y="0">ta</tspan><tspan class="cls-6" x="327.93" y="0">f</tspan><tspan x="335.32" y="0">olio</tspan><tspan class="cls-5" x="376.85" y="0"> </tspan><tspan x="386.64" y="0">persona</tspan><tspan class="cls-7" x="476.13" y="0">l</tspan><tspan x="482.12" y="0">,</tspan><tspan class="cls-5" x="487.6" y="0"> </tspan><tspan x="497.38" y="0">mi</tspan><tspan class="cls-8" x="525.67" y="0"> </tspan><tspan x="535.45" y="0">nomb</tspan><tspan class="cls-7" x="601.85" y="0">r</tspan><tspan x="610.25" y="0">e</tspan><tspan class="cls-5" x="623.52" y="0"> </tspan><tspan x="633.3" y="0">es </tspan><tspan class="cls-10" x="305.46" y="31.78">S</tspan><tspan x="318.44" y="31.78">thefa</tspan><tspan class="cls-6" x="375.67" y="31.78">n</tspan><tspan x="390.03" y="31.78">y</tspan><tspan class="cls-11" x="402.5" y="31.78"> </tspan><tspan class="cls-12" x="407.16" y="31.78">V</tspan><tspan x="421.52" y="31.78">illasmil s</tspan><tspan class="cls-13" x="514.11" y="31.78">o</tspan><tspan x="528.47" y="31.78">y diseñador </tspan><tspan class="cls-14" x="0" y="63.57">g</tspan><tspan class="cls-15" x="14.65" y="63.57">r</tspan><tspan x="23.18" y="63.57">áfi</tspan><tspan class="cls-14" x="49.79" y="63.57">c</tspan><tspan class="cls-16" x="61.5" y="63.57">o</tspan><tspan x="75.41" y="63.57">,</tspan><tspan class="cls-17" x="80.89" y="63.57"> </tspan><tspan x="87.77" y="63.57">apasionada</tspan><tspan class="cls-17" x="214.77" y="63.57"> </tspan><tspan x="221.66" y="63.57">por</tspan><tspan class="cls-17" x="259.93" y="63.57"> </tspan><tspan x="266.82" y="63.57">los</tspan><tspan class="cls-17" x="298.1" y="63.57"> </tspan><tspan x="304.98" y="63.57">p</tspan><tspan class="cls-7" x="320.05" y="63.57">r</tspan><tspan class="cls-13" x="328.45" y="63.57">o</tspan><tspan class="cls-7" x="342.8" y="63.57">y</tspan><tspan x="355.01" y="63.57">e</tspan><tspan class="cls-18" x="368.28" y="63.57">c</tspan><tspan class="cls-19" x="380.49" y="63.57">t</tspan><tspan x="389.1" y="63.57">os</tspan><tspan class="cls-17" x="414.13" y="63.57"> </tspan><tspan x="421.02" y="63.57">visuales</tspan><tspan class="cls-20" x="507.81" y="63.57"> </tspan><tspan x="514.7" y="63.57">y</tspan><tspan class="cls-17" x="527.17" y="63.57"> </tspan><tspan x="534.06" y="63.57">las</tspan><tspan class="cls-17" x="563.56" y="63.57"> </tspan><tspan x="570.45" y="63.57">soluci</tspan><tspan x="648.93" y="63.57">-</tspan><tspan x="510.75" y="95.35">nes c</tspan><tspan class="cls-7" x="566.69" y="95.35">r</tspan><tspan x="575.08" y="95.35">e</tspan><tspan class="cls-21" x="588.35" y="95.35">a</tspan><tspan x="601.01" y="95.35">ti</tspan><tspan class="cls-22" x="615.98" y="95.35">v</tspan><tspan x="628.61" y="95.35">a</tspan><tspan class="cls-23" x="641.38" y="95.35">s</tspan><tspan x="651.57" y="95.35">. </tspan><tspan class="cls-24"><tspan x="0" y="158.92">¡A</tspan><tspan class="cls-25" x="22.3" y="158.92"> </tspan><tspan class="cls-14" x="27.22" y="158.92">c</tspan><tspan x="38.92" y="158.92">o</tspan><tspan class="cls-21" x="53.46" y="158.92">n</tspan><tspan x="68.06" y="158.92">tinuación</tspan><tspan class="cls-26" x="172.38" y="158.92"> </tspan><tspan x="177.3" y="158.92">pod</tspan><tspan class="cls-15" x="221.85" y="158.92">r</tspan><tspan x="230.38" y="158.92">án</tspan><tspan class="cls-25" x="257.84" y="158.92"> </tspan><tspan x="262.76" y="158.92">seguir</tspan><tspan class="cls-26" x="330.78" y="158.92"> </tspan><tspan class="cls-14" x="335.69" y="158.92">c</tspan><tspan x="347.4" y="158.92">onociéndome</tspan><tspan class="cls-25" x="502.05" y="158.92"> </tspan><tspan x="506.96" y="158.92">a</tspan><tspan class="cls-25" x="519.73" y="158.92"> </tspan><tspan x="524.65" y="158.92">t</tspan><tspan class="cls-15" x="533.41" y="158.92">r</tspan><tspan class="cls-27" x="541.94" y="158.92">a</tspan><tspan class="cls-7" x="554.5" y="158.92">v</tspan><tspan x="566.97" y="158.92">és</tspan><tspan class="cls-26" x="590.73" y="158.92"> </tspan><tspan x="595.64" y="158.92">de</tspan><tspan class="cls-25" x="623.85" y="158.92"> </tspan><tspan x="628.77" y="158.92">mi </tspan><tspan x="547.7" y="190.7">po</tspan><tspan class="cls-28" x="577.31" y="190.7">r</tspan><tspan x="586.6" y="190.7">ta</tspan><tspan class="cls-29" x="608.14" y="190.7">f</tspan><tspan x="615.53" y="190.7">olio</tspan></tspan></text><rect class="cls-30" x="1080.83" y="535.51" width="874.04" height="1113.04"/></g></g></g></svg>