<svg xmlns="http://www.w3.org/2000/svg" viewBox="0 0 220.93 196.02"><defs><style>.cls-1{fill:#ff0052;}</style></defs><g id="Capa_2" data-name="Capa 2"><g id="Capa_1-2" data-name="Capa 1"><path class="cls-1" d="M60.75,196c26.43.13,44.61-12.38,56-34C134,129.41,150.57,96.5,167.4,63.7c5.81-11.31,11-22.93,17.59-33.81a6.16,6.16,0,0,1,2.92-2.21c4.93-2.16,10.86.65,11.5,5.76a3.9,3.9,0,0,1-.28,2.28Q165.68,102.11,131,168c-2.06,3.91-8,5.88-11.75,9.14-.75.65-1.48,1.32-2.2,2a9,9,0,0,0,5.38,15.6,9.43,9.43,0,0,0,1.68,0c15.19-1.07,22.26-12.67,28.29-24,12.76-24,24.95-48.19,37.28-72.35,9.63-18.87,19.46-37.66,28.55-56.76,4.71-9.9,3.21-19.62-4.73-28.07-7.67-8.15-18.16-10.91-27.73-7-7.71,3.13-15.61,9.88-19.4,17-23.05,43-44.6,86.66-67.34,129.79-8.72,16.56-22.68,25.17-37.13,25-11-.12-22.29-5.31-31.79-15.94-4.59-5.15-14.62-13.51-6.21-20,7.27-5.61,13.34,4.39,18.21,9.16,11.2,11,23.84,13.64,33.81,6,10.65-8.2,11-21.17.62-33.36C63.48,108.82,49.76,94,37,78.49,19.21,57,29.45,27.11,56.55,20c19-5,45.84,8.09,51.06,25.47.75,2.5-.91,7.62-2.85,8.4-2.87,1.14-7.91.6-10.4-1.21-4.84-3.53-8.21-8.78-12.78-12.71A22.55,22.55,0,0,0,52.51,39c-8.24,6.26-11.32,19-4.59,27.24,14.61,17.92,30,35.27,45.92,52.19a4.84,4.84,0,0,0,2.44,1.24c6.52,1.54,12.71-3.63,12.19-10a5.4,5.4,0,0,0-1-2.86C97.58,94,86.35,82,75.69,69.69c-4.5-5.21-8.59-10.72-13-16L67.27,50c5,5.42,8.84,12,14.22,17a28.61,28.61,0,0,0,37.44,1.23,25.16,25.16,0,0,0,4.23-35.19,159.92,159.92,0,0,0-15.52-17.23C82.4-8.42,38.38-4.2,18.49,24.24,3.67,45.44,4.76,70,22,90.78c12.31,14.79,36,42,41.93,48.72a2,2,0,0,1-.24,2.89h0a2.3,2.3,0,0,1-3.07-.12c-4.12-4.13-8.16-8.35-12.36-12.41-10.16-9.84-24.49-11.13-36.23-3.34C1.4,133.6-3.76,148.41,3.13,158.88,16.36,179,32.76,195.87,60.75,196Z"/></g></g></svg>