<svg xmlns="http://www.w3.org/2000/svg" viewBox="0 0 96.76 96.52"><defs><style>.cls-1{fill:#dee0e0;}</style></defs><g id="Capa_2" data-name="Capa 2"><g id="Capa_1-2" data-name="Capa 1"><path class="cls-1" d="M0,24.72a5.45,5.45,0,0,1,1-3.13A80.09,80.09,0,0,1,11.31,7.75a39.15,39.15,0,0,1,7.1-6.51c3-2,6.29-1.59,8.42,1.33A111.09,111.09,0,0,1,39.26,23.09a2.36,2.36,0,0,1,.12.28c1.67,4.07,1.16,6.26-2.16,9.16-1.47,1.28-2.92,2.58-4.43,3.8a1.41,1.41,0,0,0-.5,1.88,43.87,43.87,0,0,0,22.22,24.5c1.35.67,2.76,1.21,4.16,1.77a1.2,1.2,0,0,0,1.57-.39c1.33-1.6,2.7-3.16,4.07-4.72.33-.38.7-.73,1.06-1.08a6,6,0,0,1,6.55-1.5A48.91,48.91,0,0,1,80,60.61a156.86,156.86,0,0,1,13.43,8.68,8.23,8.23,0,0,1,2,1.94c1.66,2.33,1.77,4.33.23,6.72a37.07,37.07,0,0,1-6.43,7.16,109.83,109.83,0,0,1-12.12,9.46,10.7,10.7,0,0,1-8.93,1.62,70.88,70.88,0,0,1-20.72-8.31,105.6,105.6,0,0,1-20.74-16A103.48,103.48,0,0,1,5.64,43.28,57.21,57.21,0,0,1,.17,26.22C.1,25.72.06,25.22,0,24.72Z"/></g></g></svg>