<svg xmlns="http://www.w3.org/2000/svg" viewBox="0 0 96.38 96.29"><defs><style>.cls-1{fill:#dee0e0;}</style></defs><g id="Capa_2" data-name="Capa 2"><g id="Capa_1-2" data-name="Capa 1"><path class="cls-1" d="M96.38,23.48V72.71a27.42,27.42,0,0,1-2.12,7.66c-5,10.33-13.21,15.79-24.76,15.87-14.21.1-28.41,0-42.62,0A24.77,24.77,0,0,1,23,96.07,26.32,26.32,0,0,1,2.68,81.56,28.34,28.34,0,0,1,0,72.71V23.48c.1-.49.2-1,.29-1.46A26.17,26.17,0,0,1,14.51,2.75a28.25,28.25,0,0,1,9-2.75H72.85l.64.14A26.33,26.33,0,0,1,94,15.15,28.58,28.58,0,0,1,96.38,23.48ZM74.49,48.13A26.3,26.3,0,1,0,48.18,74.34,26.29,26.29,0,0,0,74.49,48.13ZM76.23,28a7.85,7.85,0,1,0-7.88-7.83A7.82,7.82,0,0,0,76.23,28Z"/><path class="cls-1" d="M48.15,27.3A20.8,20.8,0,1,1,27.36,48.14,20.83,20.83,0,0,1,48.15,27.3Z"/><path class="cls-1" d="M76.2,17.73a2.43,2.43,0,0,1,2.42,2.36,2.48,2.48,0,0,1-2.41,2.48,2.57,2.57,0,0,1-2.45-2.48A2.5,2.5,0,0,1,76.2,17.73Z"/></g></g></svg>