<svg xmlns="http://www.w3.org/2000/svg" viewBox="0 0 101.41 99"><defs><style>.cls-1{fill:#dee0e0;}</style></defs><g id="Capa_2" data-name="Capa 2"><g id="Capa_1-2" data-name="Capa 1"><path class="cls-1" d="M101.41,55c-.35,2.18-.55,4.37-1,6.53a50,50,0,0,1-10,20.85,49.59,49.59,0,0,1-23,16.29c-2.57.89-4.17-.2-4.19-2.93,0-4.78,0-9.56,0-14.34a11.13,11.13,0,0,0-2.84-7.8c-.78-.84.21-.75.53-.78a36.86,36.86,0,0,0,5.73-1.07c5-1.43,9.53-3.75,12.5-8.27a24.9,24.9,0,0,0,3.65-11.18A25.35,25.35,0,0,0,82,41.74a18,18,0,0,0-3.54-6.35,1.69,1.69,0,0,1-.42-1.86,17.28,17.28,0,0,0-.54-11.71A1.14,1.14,0,0,0,76.32,21a9.07,9.07,0,0,0-3.11.47,36.05,36.05,0,0,0-8.78,4.27,2.42,2.42,0,0,1-2.12.36,46.61,46.61,0,0,0-23.08,0A2.55,2.55,0,0,1,37,25.71a32.6,32.6,0,0,0-10.14-4.54l-.19-.05c-2.12-.42-2.51-.2-3.12,1.83a17.06,17.06,0,0,0-.06,10.78,1.32,1.32,0,0,1-.29,1.44c-4,4.64-5.08,10.11-4.54,16.06a31.25,31.25,0,0,0,2.22,9.39A17.55,17.55,0,0,0,29,69.45a30.47,30.47,0,0,0,11.11,3.31l.39,0c.29,0,.67,0,.8.31s-.19.52-.38.74A9.72,9.72,0,0,0,38.59,79a1.49,1.49,0,0,1-1.12,1.33c-3.73,1.18-7.41,1.75-10.82-.86a11.33,11.33,0,0,1-2.9-3.34,11.17,11.17,0,0,0-6.33-5.24,5.27,5.27,0,0,0-2.92-.18c-.86.2-1,.48-.54,1.22a3.86,3.86,0,0,0,1.39,1.39c2.68,1.5,4.16,4,5.4,6.62.36.78.64,1.6,1.06,2.34,1.7,3,4.42,4.31,7.69,4.74a26,26,0,0,0,7.88-.06c.77-.13.93.18.93.83,0,2.83,0,5.67,0,8.51,0,2.09-1.72,3.2-3.81,2.52a47.56,47.56,0,0,1-10.89-5.13A51.45,51.45,0,0,1,3.87,70.31,46.57,46.57,0,0,1,.27,56.09,50.88,50.88,0,0,1,2.18,35.86,50.28,50.28,0,0,1,23.22,8,46.12,46.12,0,0,1,40.79.92c19.6-3.34,36.1,2.37,49.1,17.49A48.28,48.28,0,0,1,101,43.47c.15,1,.26,2,.38,3Z" transform="translate(0)"/></g></g></svg>