<svg xmlns="http://www.w3.org/2000/svg" viewBox="0 0 133.3 97"><defs><style>.cls-1{fill:#dee0e0;}</style></defs><g id="Capa_2" data-name="Capa 2"><g id="Capa_1-2" data-name="Capa 1"><path class="cls-1" d="M66.68,0c16,0,32.07,0,48.11,0a17.81,17.81,0,0,1,14.57,7.15c1.18,1.49,1.17,1.52-.35,2.59L97,32.16c-9.66,6.76-19.33,13.5-29,20.31a2.09,2.09,0,0,1-2.85,0Q34.7,31,4.13,9.66C3,8.89,3,8.35,3.78,7.35A17.93,17.93,0,0,1,18.43,0C34.51,0,50.6,0,66.68,0Z"/><path class="cls-1" d="M66.58,97q-23.91,0-47.83,0a19.38,19.38,0,0,1-7.17-1.39c-.92-.36-1.07-.73-.26-1.45Q23.95,82.82,36.56,71.45c4.8-4.32,9.64-8.61,14.41-13a1.51,1.51,0,0,1,2.29-.12c3.07,2.19,6.19,4.3,9.29,6.46s5.24,2.07,8.2,0S77,60.56,80,58.33a1.62,1.62,0,0,1,2.43.15q11.79,10.68,23.64,21.31,7.72,7,15.47,13.9c1.43,1.28,1.42,1.5-.36,2.14A19.87,19.87,0,0,1,114.41,97Q90.48,97,66.58,97Z"/><path class="cls-1" d="M0,51.27Q0,37.11.05,23c0-.45-.22-1,.25-1.31s.85.26,1.22.52L40.36,49.34a5.45,5.45,0,0,0,.57.41c1.06.56,1,1.09.12,1.87-5.67,5.05-11.3,10.14-16.95,15.21L3.25,85.53c-1.23,1.1-1.41,1.07-2-.46A18.23,18.23,0,0,1,0,78.58Q.06,64.91,0,51.27Z"/><path class="cls-1" d="M133.26,51.23q0,13.65,0,27.31A19.07,19.07,0,0,1,132,85.3c-.37,1-.74,1.3-1.67.46q-13.86-12.51-27.77-25c-3.37-3-6.72-6.07-10.13-9-.94-.82-1.08-1.27.06-2.07Q112.24,35.88,132,22c.3-.21.6-.62,1-.4s.28.85.28,1.3Q133.26,37.08,133.26,51.23Z"/></g></g></svg>