<svg xmlns="http://www.w3.org/2000/svg" viewBox="0 0 210.28 210.28"><defs><style>.cls-1{fill:#6c39ed;}.cls-2{fill:#f4f4f4;}</style></defs><g id="Capa_2" data-name="Capa 2"><g id="Capa_1-2" data-name="Capa 1"><rect class="cls-1" width="210.28" height="210.28" rx="22"/><path class="cls-2" d="M38.66,154.2V67a4.11,4.11,0,0,1,.83,1.87q6.51,19.5,13,39A12.38,12.38,0,0,0,58,115.12a13.1,13.1,0,0,0,6.73,1.6c6.1,0,12.19,0,18.29,0,3.07,0,2.69-.35,2.71,2.68,0,3.74,1.36,5.1,5.09,5.1H118.2c5.31,0,6.24-.87,6.22-6.14,0-1.33.42-1.68,1.71-1.67,6.4.06,12.8,0,19.2,0a15.45,15.45,0,0,0,3.6-.38c4.55-1.06,7.29-4,8.73-8.37q6.5-19.56,13-39.11a2.88,2.88,0,0,1,.92-1.68v84.14c0,7.31-5,12.3-12.31,12.3q-54.23,0-108.45,0c-.39,0-.78,0-1.17,0A11.56,11.56,0,0,1,43,161.1,13.17,13.17,0,0,1,38.66,154.2Z"/><path class="cls-2" d="M61.6,62.24c4.85,0,9.69,0,14.53,0,1.26,0,1.7-.39,1.63-1.65-.16-2.79,0-5.53,1.53-8,2.2-3.63,5.39-5.82,9.64-5.87,10.76-.12,21.53-.1,32.3,0a11.65,11.65,0,0,1,11.19,11.16c0,.74,0,1.47,0,2.21,0,2.16,0,2.16,2.1,2.16h28.8c1.58,0,1.64.09,1.12,1.64q-7,20.91-13.93,41.82c-.86,2.57-2.1,3.45-4.8,3.45-6.53,0-13.06,0-19.59,0-1.27,0-1.88-.31-1.7-1.66a10,10,0,0,0,0-1.55c0-3-1.53-4.56-4.56-4.59-3.5,0-7,0-10.5,0q-9.35,0-18.68,0c-3.57,0-4.95,1.4-5,4.95,0,3.21.41,2.81-2.83,2.82-6.18,0-12.37,0-18.55,0-2.55,0-3.83-.89-4.64-3.31q-7-21-14-42.06c-.48-1.44-.41-1.53,1.12-1.53Zm43.49,0c5.41,0,10.81,0,16.22,0,3.53,0,3.17.57,3.12-3.33a3.89,3.89,0,0,0-4.22-4.23q-15.12-.06-30.23,0c-2.66,0-4.13,1.57-4.24,4.23,0,.43,0,.87,0,1.3,0,2,0,2,2,2Z"/><path class="cls-2" d="M105.09,116.93c-3.46,0-6.91,0-10.37,0-1.06,0-1.46-.34-1.42-1.42.06-1.81,0-3.62,0-5.44,0-.83.32-1.15,1.15-1.14h21.26c.83,0,1.17.31,1.15,1.14,0,1.86,0,3.72,0,5.57,0,1-.34,1.29-1.29,1.29C112.09,116.91,108.59,116.93,105.09,116.93Z"/></g></g></svg>