<svg xmlns="http://www.w3.org/2000/svg" viewBox="0 0 210.28 210.28"><defs><style>.cls-1{fill:#03e8bc;}.cls-2{fill:#f4f4f4;}</style></defs><g id="Capa_2" data-name="Capa 2"><g id="Capa_1-2" data-name="Capa 1"><rect class="cls-1" width="210.28" height="210.28" rx="22"/><path class="cls-2" d="M125.27,102.18H86.86A27.36,27.36,0,0,0,59.5,129.55V159H76.34V132a1.72,1.72,0,0,1,3.44,0V159h52.91V132a1.71,1.71,0,0,1,1.72-1.71h0a1.7,1.7,0,0,1,1.71,1.71V159h16.51V129.55A27.36,27.36,0,0,0,125.27,102.18Z"/><path class="cls-2" d="M106.2,96.25A24.25,24.25,0,1,0,82,72,24.24,24.24,0,0,0,106.2,96.25Z"/></g></g></svg>