<svg xmlns="http://www.w3.org/2000/svg" viewBox="0 0 210.28 210.28"><defs><style>.cls-1{fill:#6c39ed;}.cls-2{fill:#f4f4f4;}</style></defs><g id="Capa_2" data-name="Capa 2"><g id="Capa_1-2" data-name="Capa 1"><rect class="cls-1" width="210.28" height="210.28" rx="22"/><path class="cls-2" d="M183.71,123a20.49,20.49,0,0,1-5.37,10.4c-6,5.83-13,7.37-20.9,4.62a2,2,0,0,0-2.48.5q-16.49,15.94-33,31.84c-.46.44-.92.9-1.4,1.32-1.79,1.56-3.06,1.52-4.74-.22Q103.89,159.17,92,146.81L48.1,101.3c-5-5.2-10-10.44-15.05-15.6a4.64,4.64,0,0,1-1.4-4.28c2-12.75,3.85-25.51,5.79-38.26a1.93,1.93,0,0,0-.52-1.76q-1.77-1.8-3.48-3.66c-1.24-1.35-1.31-3-.19-4.11s2.74-1,4.07.3c1.16,1.15,2.31,2.31,3.41,3.52a2.5,2.5,0,0,0,2.24.83c7.49-.51,15-1,22.49-1.47,5.87-.38,11.74-.75,17.6-1.18a4.74,4.74,0,0,1,4.07,1.63Q114.9,66.15,142.73,95c2.85,3,5.7,5.91,8.49,8.92.67.72,1.09.65,1.84.13a19.35,19.35,0,0,1,24.71,1.69,18.74,18.74,0,0,1,5.42,9.05c.18.67.35,1.34.52,2ZM119,149.38c5.14,0,10.29,0,15.44,0a3,3,0,0,0,2.27-.82q6.83-6.63,13.71-13.17c.78-.73.85-1.17,0-2A19.12,19.12,0,0,1,147.63,110a1.56,1.56,0,0,0-.23-2.28c-5.6-5.74-11.15-11.52-16.71-17.3Q120.45,79.8,110.21,69.15,99.44,58,88.66,46.83c-.61-.63-1-.87-1.79-.13Q65.69,67.19,44.44,87.61c-.86.82-.65,1.29.06,2q28.2,29.21,56.34,58.48a3.71,3.71,0,0,0,3,1.28C108.86,149.34,113.91,149.38,119,149.38ZM47,43.61l-.36.48a14.29,14.29,0,0,1,2,1.57,2.25,2.25,0,0,0,2.69.82,6.68,6.68,0,0,1,3.81.05,7.88,7.88,0,0,1-4,15.24,7.75,7.75,0,0,1-5.72-9.47,2.45,2.45,0,0,0-.83-2.95c-.38-.31-.66-.74-1-1.09s-.53-.89-1-.77-.36.74-.43,1.16q-1.43,9.52-2.85,19.06-1,6.74-2,13.49c-.23,1.55,1.13,2.12,2,2.86s1.31-.38,1.78-.82c3.14-2.95,6.22-5.95,9.32-8.94l30-29c1-.93,2-1.83,2.91-2.76.72-.7.35-1.14-.42-1.36a3.58,3.58,0,0,0-1.18,0c-9.13.59-18.25,1.13-27.37,1.81A51.68,51.68,0,0,0,47,43.61Zm103.36,76.16a14,14,0,0,0,27.92.76c.19-8-5.76-14.47-13.42-14.63A14,14,0,0,0,150.37,119.77ZM129.55,155H107.49l10.19,10.55c.68.7,1.13.21,1.61-.25l9.7-9.37C129.23,155.7,129.55,155.51,129.55,155ZM55.34,54.11A2.24,2.24,0,0,0,53,51.81a2.32,2.32,0,0,0,0,4.64A2.24,2.24,0,0,0,55.34,54.11Z"/><path class="cls-2" d="M120.79,120.9c2.42-2.31,4.83-4.63,7.27-6.92,1.77-1.65,4-1.15,4.73,1a2.51,2.51,0,0,1-.77,2.7q-7.28,7.08-14.6,14.12a2.77,2.77,0,0,1-4.64-2.82c1-4,2-8,3-11.94.13-.51.25-1,.46-1.9L110,121.05c-.47.45-.91.91-1.39,1.34-1.41,1.28-2.93,1.32-4.07.12a2.65,2.65,0,0,1,.26-4q7.1-6.94,14.27-13.83c1.25-1.19,2.49-1.36,3.63-.61a2.8,2.8,0,0,1,1.14,3.37q-1.56,6.18-3.09,12.37c-.07.28-.11.56-.17.85Z"/><path class="cls-2" d="M72.5,86a6.74,6.74,0,0,1-4.43-1.41,29.68,29.68,0,0,1-4.89-4.94,2.47,2.47,0,0,1,.28-3.61Q70.74,69,78.08,62c1.4-1.34,2.79-1.27,4.18.08,1.21,1.17,2.4,2.36,3.52,3.61a7.84,7.84,0,0,1-3.82,13,2.33,2.33,0,0,0-1.91,1.87A7.57,7.57,0,0,1,72.5,86Zm9.86-15c0-1-1.54-3-2.28-3a12.74,12.74,0,0,0-3.25,2.92c-.06.74,2.21,2.47,3.23,2.47A2.23,2.23,0,0,0,82.36,71Zm-7.42,7.14c0-1-1.55-3-2.29-3a13.76,13.76,0,0,0-3.24,2.94c-.06.72,2.24,2.48,3.23,2.46A2.25,2.25,0,0,0,74.94,78.15Z"/><path class="cls-2" d="M143.11,131.54a12.32,12.32,0,0,1-7.59,10.72c-4.89,2.26-9.54,1.5-13.75-1.81a23.09,23.09,0,0,1-2.93-2.92,2.61,2.61,0,0,1,.07-4q7.32-7.14,14.73-14.18a2.56,2.56,0,0,1,3.51-.3A15,15,0,0,1,143.11,131.54Zm-5.7-1.93a6.71,6.71,0,0,0-1.11-3.41c-.51-.82-.93-1-1.7-.23-2.95,2.92-5.93,5.81-9,8.64-1,1-.71,1.5.31,2.08a7.35,7.35,0,0,0,7.63.16C136.11,135.45,137.38,133.21,137.41,129.61Z"/><path class="cls-2" d="M100.36,84a7.81,7.81,0,0,1-8.83,7.79c-1.06-.15-1.41.2-1.71,1.08q-1,3-2.12,6c-.7,1.88-2.09,2.66-3.65,2.12s-2.15-2-1.5-3.91c.91-2.67,1.87-5.32,2.79-8,.11-.34.46-.77,0-1s-.63.2-.87.42c-1.54,1.46-3,3-4.62,4.4a2.74,2.74,0,0,1-4.6-1,2.83,2.83,0,0,1,1-3.18c3-2.89,6-5.76,9-8.64,1.71-1.65,3.42-3.3,5.14-4.93s3-1.58,4.65,0c1.23,1.21,2.41,2.48,3.56,3.78A7.4,7.4,0,0,1,100.36,84Zm-5.51,0c0-1-1.52-3.18-2.26-3.19a13.43,13.43,0,0,0-3.27,3.07c0,.72,2.24,2.49,3.22,2.48A2.32,2.32,0,0,0,94.85,84Z"/><path class="cls-2" d="M110.33,92.61A2.67,2.67,0,0,1,113,96.38c-.54,1.38-1.23,2.7-1.87,4q-3.62,7.58-7.23,15.13a6.64,6.64,0,0,1-.85,1.38,2.52,2.52,0,0,1-3,.69,2.46,2.46,0,0,1-1.67-2.4,4.1,4.1,0,0,1,.52-2c1.19-2.56,1.19-2.57-.75-4.55-.13-.15-.29-.27-.41-.43-1.69-2.34-3.55-3.61-6.5-1.77a2.47,2.47,0,0,1-3.4-1.45,2.66,2.66,0,0,1,1.39-3.5c6.71-2.94,13.44-5.83,20.16-8.72A3.81,3.81,0,0,1,110.33,92.61Zm-5.61,8.5a5.09,5.09,0,0,0-2.48.77c-.61.26-1.61.29-1.67,1s.9,1.21,1.41,1.79.85.36,1.13-.22C103.62,103.41,104.13,102.35,104.72,101.11Z"/><path class="cls-2" d="M157.89,122.88c-1.56-.6-2.83.12-3.76-.66-.44-.38-.21-1.13-.21-1.72,0-3,0-3,3.25-3.6-.25-1.14-2.18-1.55-1.72-2.64a8.16,8.16,0,0,1,2.68-2.91c1.83-1.39,2,1.38,3.35,1.43.57-1-.5-2.52.63-3.19s2.43-.27,3.65-.2c2.55.15.73,2.33,1.62,3.42a6,6,0,0,0,1.64-1.47,1,1,0,0,1,1.62,0l.11.1a12.29,12.29,0,0,1,2.44,2.57c.71,1.39-1.44,1.62-1.55,2.86.93.58,2.37-.38,3,.67s.16,2.33.22,3.5c.05.9-.15,1.55-1.28,1.52a5.41,5.41,0,0,0-2.19.13c.05.6.53.84.86,1.17,1.42,1.47,1.46,1.49-.07,2.95-.78.73-1.33,2-2.44,2s-1.39-1.43-2.41-1.84c-.54,1.06.41,2.54-.68,3.2s-2.42.29-3.65.22c-2.59-.13-.68-2.33-1.62-3.4-.67.19-1.09.89-1.61,1.41a1,1,0,0,1-1.74,0,26.81,26.81,0,0,0-2-2c-.81-.71-.94-1.34,0-2C156.57,123.93,157.13,123.48,157.89,122.88Z"/></g></g></svg>