<svg xmlns="http://www.w3.org/2000/svg" viewBox="0 0 210.28 210.28"><defs><style>.cls-1{fill:#03e8bc;}.cls-2{fill:#f4f4f4;stroke:#f4f4f4;stroke-linecap:round;stroke-linejoin:round;}</style></defs><g id="Capa_2" data-name="Capa 2"><g id="Capa_1-2" data-name="Capa 1"><rect class="cls-1" width="210.28" height="210.28" rx="22"/><path class="cls-2" d="M174.84,144.93c-1.22,4.06-3.65,6.94-7.87,8a13.19,13.19,0,0,1-3.37.42H147.69c-2.2,0-3.4-.83-3.35-2.31s1.12-2.13,3.33-2.14h16.18c4.09,0,6.8-2.6,6.8-6.68q0-33.19,0-66.38c0-1.07-.36-1.51-1.41-1.41-.36,0-.73,0-1.09,0h-126c-.31,0-.63,0-1,0-1.18-.14-1.57.35-1.56,1.54.06,4.45,0,8.89,0,13.33A2.09,2.09,0,0,1,38,91.62a2,2,0,0,1-2.28-1.09,2.41,2.41,0,0,1-.26-1.32c0-10.83,0-21.67,0-32.51,0-5.47,4.75-9.75,10.74-10h99.84a7.41,7.41,0,0,1,2.3.18,2,2,0,0,1,1.54,2.25,2,2,0,0,1-1.78,2,9.37,9.37,0,0,1-1.76.06c-33.06,0-66.11.05-99.17,0-4.71,0-7.68,2.95-7.49,7.57.13,3.26.08,6.53,0,9.8,0,1.29.42,1.62,1.64,1.59,2.58-.08,5.17,0,7.75,0H168.53c2.14,0,2.14,0,2.14-2.12,0-3.27,0-6.53,0-9.8,0-4.35-2.62-7-6.94-7-2,0-4.08,0-6.12,0-1.53,0-2.45-.84-2.49-2.12a2.15,2.15,0,0,1,2.36-2.26,41.93,41.93,0,0,1,8.82.21,10.26,10.26,0,0,1,7.79,6.15c.3.66.51,1.36.76,2Z"/><path class="cls-2" d="M35.45,121.32V100c0-.41,0-.81,0-1.22a2.13,2.13,0,1,1,4.26.06c0,.46,0,.91,0,1.36q0,20.88,0,41.75c0,3.65,1.8,6.12,5,6.86a8.52,8.52,0,0,0,1.89.16H80.05c1.75,0,1.77,0,1.18-1.61q-3.93-10.58-7.86-21.15a4.79,4.79,0,0,1-.5-2.5c.4-2.46,2.63-3.65,5.18-2.71q9.44,3.48,18.85,7,8.09,3,16.18,6c2,.75,2.76,2,2.54,3.8a3.8,3.8,0,0,1-1.27,2.2c-1.85,1.86-3.69,3.74-5.58,5.56-.64.62-.59,1,0,1.65a4.89,4.89,0,0,0,4.13,1.78c7.47-.11,15-.05,22.43-.05.41,0,.82,0,1.23,0a2.26,2.26,0,0,1,2.37,2.14,2.33,2.33,0,0,1-2.14,2.25,10.69,10.69,0,0,1-1.5,0c-6.25,0-12.51,0-18.76,0-.89,0-1.4,0-.9,1.16a3.33,3.33,0,0,1-.87,3.86c-1.36,1.41-2.73,2.8-4.14,4.14a3.54,3.54,0,0,1-5.22-.08c-2-1.92-3.94-3.88-5.86-5.86-.65-.68-1.11-.72-1.78,0-1.79,1.86-3.63,3.67-5.47,5.49-2.32,2.28-4.86,1.73-6-1.32-.72-1.86-1.48-3.7-2.06-5.61a2.19,2.19,0,0,0-2.53-1.78c-11.64.06-23.29,0-34.94,0A10.8,10.8,0,0,1,37,148.23a9.77,9.77,0,0,1-1.51-5.29Q35.47,132.14,35.45,121.32Zm42.62,4.33a2.31,2.31,0,0,0,0,.54L89.51,157c.32.87.67.93,1.31.27,1.77-1.81,3.58-3.59,5.38-5.38,2-2,2.82-2,4.74,0l4.81,4.81c2.37,2.37,2.34,2.35,4.68-.07.64-.66.57-1.06,0-1.65-2.21-2.16-4.37-4.34-6.54-6.53-1.56-1.57-1.56-2.57,0-4.16,1.77-1.82,3.58-3.6,5.37-5.39,1.19-1.19,1.18-1.19-.4-1.78l-23-8.59Z"/><path class="cls-2" d="M74.41,110.07c.64-1.8,1.26-3.52,1.87-5.25.85-2.43,1.69-4.88,2.55-7.31.59-1.68,1.63-2.39,2.87-2s1.88,1.63,1.29,3.33c-2.15,6.21-4.35,12.4-6.51,18.6a2.3,2.3,0,0,1-2.24,1.84c-1.21,0-1.83-.81-2.19-1.9q-2-5.79-4-11.58c-.14-.42-.31-.83-.47-1.26-.55.18-.51.67-.63,1-1.39,3.83-2.77,7.67-4.11,11.52-.42,1.19-1,2.24-2.39,2.22s-1.9-1-2.29-2.16q-3.14-9.19-6.32-18.38a2.27,2.27,0,0,1,.74-2.9,2,2,0,0,1,2.52.06,3,3,0,0,1,1,1.6Q58,103,59.91,108.57c.15.44.2,1,.63,1.29.56-.31.57-.87.73-1.31,1.35-3.75,2.7-7.5,4-11.26.39-1.13,1-2,2.27-2s1.9.82,2.28,2c1.28,3.82,2.59,7.64,3.9,11.45A2.36,2.36,0,0,0,74.41,110.07Z"/><path class="cls-2" d="M142.38,104.18,138,116.58c-.11.3-.21.6-.31.9a2.25,2.25,0,0,1-4.41,0L131,111.07l-4-11.7a7.88,7.88,0,0,1-.35-1.17,2.15,2.15,0,0,1,1.49-2.67,2.06,2.06,0,0,1,2.6,1.38c.84,2.2,1.58,4.44,2.34,6.66s1.47,4.28,2.24,6.53a2.45,2.45,0,0,0,.79-1.45q2.06-5.69,4.07-11.38c.39-1.12,1-2,2.29-1.94s1.88.88,2.25,2c1.28,3.78,2.56,7.55,3.87,11.32.15.44.15,1,.72,1.39l2.36-6.67c.7-2,1.4-4,2.12-6,.57-1.58,1.61-2.23,2.83-1.81s1.85,1.64,1.31,3.22c-2.18,6.24-4.39,12.47-6.57,18.71a2.28,2.28,0,0,1-2.25,1.82c-1.21,0-1.81-.82-2.18-1.91-1.28-3.82-2.6-7.63-3.9-11.44C142.88,105.47,142.69,105,142.38,104.18Z"/><path class="cls-2" d="M98.36,110.38c1.52-4.25,2.91-8.12,4.29-12,.19-.51.37-1,.56-1.53a2.08,2.08,0,0,1,2.16-1.52A2.1,2.1,0,0,1,107.45,97l3.82,11.19c.21.6.42,1.19.64,1.83.47-.15.48-.54.59-.85q1.91-5.44,3.82-10.9a12.81,12.81,0,0,1,.52-1.39,2.16,2.16,0,1,1,4.06,1.5c-.71,2.19-1.51,4.36-2.27,6.54-1.42,4.07-2.85,8.13-4.25,12.19-.41,1.2-1,2.23-2.4,2.21s-1.89-1-2.28-2.18c-1.25-3.73-2.53-7.46-3.81-11.19-.16-.46-.34-.92-.63-1.72-.71,2-1.31,3.58-1.9,5.22-1,2.65-1.9,5.29-2.82,7.94-.38,1.08-1,1.89-2.19,1.92s-1.91-.8-2.3-1.94c-2.12-6.21-4.28-12.41-6.41-18.63a2.26,2.26,0,0,1,1.25-3.13c1.23-.45,2.34.18,2.89,1.73,1.33,3.8,2.63,7.62,4,11.43C97.88,109.16,98.05,109.57,98.36,110.38Z"/><path class="cls-2" d="M52.85,64.48a3.89,3.89,0,0,1-.07-7.78,3.89,3.89,0,1,1,.07,7.78Z"/><path class="cls-2" d="M80,60.62a3.89,3.89,0,1,1-3.81-3.92A3.8,3.8,0,0,1,80,60.62Z"/><path class="cls-2" d="M64.55,56.7a3.89,3.89,0,0,1-.08,7.78,3.89,3.89,0,1,1,.08-7.78Z"/></g></g></svg>