<svg xmlns="http://www.w3.org/2000/svg" viewBox="0 0 210.28 210.28"><defs><style>.cls-1{fill:#09012a;}.cls-2{fill:#f4f4f4;}</style></defs><g id="Capa_2" data-name="Capa 2"><g id="Capa_1-2" data-name="Capa 1"><rect class="cls-1" width="210.28" height="210.28" rx="22"/><path class="cls-2" d="M87.93,175.33A26.58,26.58,0,0,1,74.44,169a25.13,25.13,0,0,1-8.36-15.31c-.17-1.12-.65-1.51-1.78-1.48-2.9.07-5.81.07-8.71,0a1.85,1.85,0,0,0-2,1.3,9.39,9.39,0,1,1-12.21-12.45,9.15,9.15,0,0,1,11.71,4,3.34,3.34,0,0,0,3.75,2.15c2.53-.14,5.08-.07,7.62,0a1.38,1.38,0,0,0,1.64-1.33c2.16-12.09,10.84-20.56,23-21.69,10.09-.94,18.09,3.23,23.84,11.57.62.9,1,1.05,1.85.36,2.16-1.71,4.37-3.38,6.64-5a2.15,2.15,0,0,0,1-2.71,25.49,25.49,0,0,1,12.28-29,23.34,23.34,0,0,1,4.73-2c.91-.28.91-.63.39-1.32-3-3.94-6-7.88-8.89-11.87-.63-.87-1.09-.43-1.69-.12-9.93,5.15-20.9,3.92-29.26-3.37a24.7,24.7,0,0,1-7.8-12.66c-.4-1.57-.41-1.58-1.67-.51-2.8,2.38-5.58,4.77-8.39,7.14-.59.5-.91.9-.33,1.67a25.53,25.53,0,0,1,5,13,2.52,2.52,0,0,0,1.08,1.9q5.35,4.09,10.62,8.28a1.72,1.72,0,0,0,2.26.2,9.29,9.29,0,0,1,13.69,6.07,9.38,9.38,0,0,1-12.88,10.72A8.88,8.88,0,0,1,96,108.4a6.86,6.86,0,0,1,.31-3,1.42,1.42,0,0,0-.63-1.85c-2.7-2.06-5.4-4.13-8-6.28-.94-.76-1.24-.65-1.53.51a25.66,25.66,0,0,1-50.49-8.28C36.33,78.23,45.81,68,57.1,66.41c1.21-.17,1.71-.59,1.67-1.88-.09-2.9-.07-5.81,0-8.71a1.76,1.76,0,0,0-1.25-1.93A9.39,9.39,0,1,1,69.89,41.6a9.16,9.16,0,0,1-4.1,11.81,3.26,3.26,0,0,0-2.08,3.65c.15,2.53.08,5.08,0,7.62,0,1.06.34,1.56,1.42,1.7a23.92,23.92,0,0,1,11.4,4.8,1.44,1.44,0,0,0,2.2-.05c3.89-3.41,7.83-6.75,11.77-10.1a2.09,2.09,0,0,0,.88-1.58,25.66,25.66,0,0,1,50.69-3.14A2,2,0,0,0,143.27,58q7.6,3.65,15.18,7.35a2.12,2.12,0,0,0,2.35-.14,9.33,9.33,0,0,1,13.8,4.92c.12.34.27.67.41,1v4.08c-.09.21-.19.41-.27.62-1.89,5.13-6.44,7.73-11.32,6.47a9.38,9.38,0,0,1-6.82-11.34c.18-.83-.18-1.13-.83-1.44-4-1.9-7.93-3.8-11.87-5.75-1-.51-1.34-.24-1.46.82a24.77,24.77,0,0,1-7.27,15c-.76.77-.71,1.24-.11,2,3,3.93,6.07,7.81,8.87,11.88,1.42,2.06,2.93,3.32,5.51,2.87a2.62,2.62,0,0,1,.68,0,25.84,25.84,0,0,1,22.58,28c-1.25,12.71-12,23-24.82,23.21-9.4.14-16.8-3.85-22.14-11.58-.67-1-1.08-1.21-2.07-.42-2.23,1.79-4.53,3.48-6.85,5.15a1.62,1.62,0,0,0-.73,2.06,20.37,20.37,0,0,1,1,6.29,2.06,2.06,0,0,0,1.43,2.15c4.51,2.12,9,4.25,13.47,6.51a3.7,3.7,0,0,0,4-.05c3.94-2.23,8.75-1.05,11.7,2.6a9.52,9.52,0,0,1-.14,11.61,11.68,11.68,0,0,1-5.15,3.4H138c-.2-.1-.4-.22-.61-.3-5-1.93-7.33-6-6.3-11.27.17-.88-.27-1.11-.87-1.4-4.16-2-8.34-4-12.47-6-1-.5-1.41-.44-1.76.76a25.44,25.44,0,0,1-8.8,12.92A27.43,27.43,0,0,1,95,175.33Zm44.91-38.69c.34-.38.18-.86.23-1.29a7.25,7.25,0,0,1,7-6.59c4.71-.1,9.43-.11,14.14,0a7.22,7.22,0,0,1,7,7.11c0,.31-.19.72.25.94,6-5.15,8.06-14.91,4.87-22.76a20.84,20.84,0,0,0-21.61-12.72c-8.15.78-15.63,7.25-17.73,15.65C125,125.09,128.54,133.33,132.84,136.64ZM75.29,106.75c5.79-4.42,8.23-14.32,5.48-21.92a20.74,20.74,0,0,0-39.49,1.22c-2.26,8.18.86,16.66,5.61,20.34a2.83,2.83,0,0,0,.34-1.41,7.24,7.24,0,0,1,7.25-6.43c4.53-.08,9.07-.09,13.6,0a7.21,7.21,0,0,1,6.48,4A9,9,0,0,1,75.29,106.75Zm27.37-30.37c.27-.2.16-.5.18-.75.33-4.29,3.08-7.14,7.34-7.27,4.53-.13,9.07-.12,13.6,0A7.2,7.2,0,0,1,131,75.67c0,.24-.12.55.18.73,5-4.12,8.18-12.94,5.49-21.25a20.74,20.74,0,0,0-39.44,0C94.53,63.35,97.54,72,102.66,76.38Zm2.86,88.28c4.77-3.62,8.15-12.14,5.9-20.33a20.75,20.75,0,0,0-39.78-.75c-2.56,8.06.4,16.83,5.54,21,0-.3.08-.56.11-.81.46-4.24,2.66-6.77,6.87-7.1a85.44,85.44,0,0,1,15.34.08,7,7,0,0,1,5.85,5.69C105.47,163.17,105.46,163.89,105.52,164.66Zm-14.07,5.72a16,16,0,0,0,5.26-.62c4.92-1.52,3.76-1,3.89-5.47A2.69,2.69,0,0,0,98,161.57q-6.66-.09-13.32,0a2.3,2.3,0,0,0-2.4,2.56c0,1,0,2.08,0,3.12a1.49,1.49,0,0,0,1.13,1.61A19.42,19.42,0,0,0,91.45,170.38ZM61.31,103.54c-2.22,0-4.44,0-6.66,0a2.34,2.34,0,0,0-2.56,2.53,24.83,24.83,0,0,1,0,2.59c-.17,1.35.49,1.93,1.66,2.36a21.16,21.16,0,0,0,13.34.54c3.36-1,3.37-.95,3.36-4.37,0-.36,0-.72,0-1.08-.15-1.74-1-2.55-2.69-2.57C65.58,103.51,63.44,103.54,61.31,103.54Zm55.6-30.2h0c-2.18,0-4.35,0-6.53,0a2.3,2.3,0,0,0-2.52,2.55c0,.9.07,1.82,0,2.71-.13,1.23.44,1.77,1.52,2.18a21.16,21.16,0,0,0,13.72.51c3-.86,3-.86,3-4,0-.4,0-.81,0-1.22,0-2-.76-2.72-2.72-2.75C121.17,73.31,119,73.34,116.91,73.34Zm30.35,60.39c-2.18,0-4.35,0-6.52,0-1.88,0-2.65.81-2.68,2.64,0,.86.06,1.73,0,2.58a1.92,1.92,0,0,0,1.5,2.21,20.91,20.91,0,0,0,14.48.26c2.21-.75,2.2-.76,2.21-3.06,0-.68,0-1.36,0-2-.06-1.82-.76-2.56-2.57-2.59C151.51,133.71,149.38,133.74,147.26,133.73Zm-7.14,36.7a4.38,4.38,0,0,0,4.56-4.36,4.5,4.5,0,0,0-9-.13A4.38,4.38,0,0,0,140.12,170.43Zm-74.5-125a4.22,4.22,0,0,0-4.31-4.56,4.41,4.41,0,0,0-4.58,4.24,4.61,4.61,0,0,0,4.4,4.64A4.39,4.39,0,0,0,65.62,45.45ZM40.57,149.76a4.39,4.39,0,0,0,4.3,4.51,4.6,4.6,0,0,0,4.59-4.45,4.38,4.38,0,0,0-4.38-4.43A4.22,4.22,0,0,0,40.57,149.76Zm64.67-37.35a4.43,4.43,0,1,0,.21-8.86,4.53,4.53,0,0,0-4.6,4.4A4.48,4.48,0,0,0,105.24,112.41ZM165.7,77.57a4.43,4.43,0,1,0-4.47-4.37A4.42,4.42,0,0,0,165.7,77.57Z"/><path class="cls-2" d="M147.6,124.32c-5.06.4-9.53-3.7-9.89-9.08a9.57,9.57,0,0,1,8.37-9.64,9.4,9.4,0,1,1,1.52,18.72Zm4-9.39a4.35,4.35,0,0,0-4.38-4.43A4.42,4.42,0,0,0,142.7,115a4.5,4.5,0,0,0,4.4,4.46A4.43,4.43,0,0,0,151.56,114.93Z"/><path class="cls-2" d="M70.6,84.8a9.42,9.42,0,0,1-9.32,9.39,9.55,9.55,0,0,1-9.49-9.41,9.43,9.43,0,0,1,9.44-9.41A9.32,9.32,0,0,1,70.6,84.8Zm-9.42-4.44a4.4,4.4,0,0,0-4.45,4.34,4.57,4.57,0,0,0,4.46,4.54,4.47,4.47,0,0,0,4.48-4.48A4.29,4.29,0,0,0,61.18,80.36Z"/><path class="cls-2" d="M126.37,54.68A9.44,9.44,0,1,1,117,45.17,9.43,9.43,0,0,1,126.37,54.68Zm-9.43-4.51a4.34,4.34,0,0,0-4.44,4.44A4.46,4.46,0,0,0,116.89,59a4.35,4.35,0,0,0,4.47-4.43A4.26,4.26,0,0,0,116.94,50.17Z"/><path class="cls-2" d="M100.8,142.87a9.46,9.46,0,0,1-9.48,9.38,9.44,9.44,0,0,1,.11-18.88A9.47,9.47,0,0,1,100.8,142.87Zm-5,.07a4.3,4.3,0,0,0-4.34-4.56,4.43,4.43,0,0,0-.27,8.86A4.29,4.29,0,0,0,95.81,142.94Z"/></g></g></svg>