<svg xmlns="http://www.w3.org/2000/svg" viewBox="0 0 403.85 403.85"><defs><style>.cls-1{fill:#47031c;}.cls-2{fill:#db4173;}</style></defs><g id="Capa_2" data-name="Capa 2"><g id="Capa_1-2" data-name="Capa 1"><rect class="cls-1" width="403.85" height="403.85" rx="65.48"/><path class="cls-2" d="M115.55,125.09h29.06V288.87H115.55Z"/><path class="cls-2" d="M176.2,227.47c0-40.07,25.14-64.62,52.09-64.62,13.92,0,22.74,5.22,32.26,13.52l-1.11-19.82V112h28.85V288.87H264.65l-2.2-13.31h-.8c-9.12,9.11-21.74,16.31-35,16.31C196,291.87,176.2,268,176.2,227.47Zm83.24,26.74v-57.3c-8.41-7.51-16.72-10.22-25-10.22-15.63,0-28.55,14.83-28.55,40.48,0,26.75,10.22,40.86,28,40.86C243.31,268,251.33,263.83,259.44,254.21Z"/></g></g></svg>