<svg xmlns="http://www.w3.org/2000/svg" viewBox="0 0 403.85 403.85"><defs><style>.cls-1{fill:#de4b25;}.cls-2{fill:#fff;}</style></defs><g id="Capa_2" data-name="Capa 2"><g id="Capa_1-2" data-name="Capa 1"><rect class="cls-1" width="403.85" height="403.85" rx="65.48"/><path class="cls-2" d="M93.5,84.89H309.59c-1,12.23-1.95,24.13-3,36q-7.47,84.36-15,168.72c-1.41,16.25-1.18,16.26-17,20.67-22.71,6.34-45.37,12.8-68.14,18.91a21.58,21.58,0,0,1-10.74,0c-25.87-7-51.62-14.49-77.47-21.6-4.16-1.14-5.69-3-6.09-7.45Q103.09,195.05,93.51,90C93.37,88.41,93.5,86.83,93.5,84.89Zm69.9,71.68H267c.84-9.28,1.6-17.68,2.37-26.09H133.42c2.45,27.45,4.85,54.31,7.3,81.7h94c-.51,5.68-1,10.72-1.4,15.76-1.36,19.11-1.43,18.78-19.95,24.23-8.32,2.46-16.12,3-24.27,0a85.53,85.53,0,0,0-13.36-3.69c-3.53-.69-5.05-2.18-5.21-5.91-.23-5.46-1.11-10.9-1.71-16.3H142.17c.93,12.55,2,24.54,2.62,36.54.24,4.54,2.32,6.28,6.44,7.36,15,3.92,29.84,8.26,44.82,12.19a18.08,18.08,0,0,0,8.73.3c15.88-4.11,31.65-8.64,47.51-12.85,3.33-.89,4.81-2.33,5.11-6,1.56-19.14,3.46-38.26,5.21-57.38.64-7,1.18-14.07,1.84-22H165.56C164.82,174.87,164.15,166.22,163.4,156.57Z"/><path class="cls-1" d="M163.4,156.57c.75,9.65,1.42,18.3,2.16,27.78h98.89c-.66,8-1.2,15-1.84,22-1.75,19.12-3.65,38.24-5.21,57.38-.3,3.67-1.78,5.11-5.11,6-15.86,4.21-31.63,8.74-47.51,12.85a18.08,18.08,0,0,1-8.73-.3c-15-3.93-29.84-8.27-44.82-12.19-4.12-1.08-6.2-2.82-6.44-7.36-.62-12-1.69-24-2.62-36.54h26.65c.6,5.4,1.48,10.84,1.71,16.3.16,3.73,1.68,5.22,5.21,5.91a85.53,85.53,0,0,1,13.36,3.69c8.15,3,16,2.51,24.27,0,18.52-5.45,18.59-5.12,19.95-24.23.36-5,.89-10.08,1.4-15.76h-94c-2.45-27.39-4.85-54.25-7.3-81.7H269.33c-.77,8.41-1.53,16.81-2.37,26.09Z"/></g></g></svg>