<svg xmlns="http://www.w3.org/2000/svg" viewBox="0 0 403.85 403.85"><defs><style>.cls-1{fill:#1b364b;}.cls-2{fill:#4edbbd;}.cls-3{fill:#f7f7f7;}</style></defs><g id="Capa_2" data-name="Capa 2"><g id="Capa_1-2" data-name="Capa 1"><rect class="cls-1" width="403.85" height="403.85" rx="65.48"/><path class="cls-2" d="M167.93,340.51a33.23,33.23,0,0,1-3.2-2.55c-21-20.95-41.87-42-63-62.84-4.2-4.14-1.34-6.15,1.3-8.78q53.13-53.1,106.24-106.23c7.76-7.75,15.61-15.4,23.21-23.3,2.93-3,5-3.77,8.34-.34q31,31.42,62.45,62.48c2.91,2.88,3.23,4.8.16,7.86q-65.53,65.31-130.92,130.8C171.32,338.8,170.26,340.26,167.93,340.51Z"/><path class="cls-3" d="M152.92,199.69c5.45-11.6-1.43-18.79-9-26.12-14.56-14-28.71-28.46-43.14-42.61-2.79-2.74-3.63-4.7-.39-7.87q28.83-28.17,57.32-56.71c4.07-4.09,6.7-4.09,10.88.17q27.79,28.31,56.28,55.94c3.73,3.64,3.43,5.93-.12,9.39-22.32,21.76-44.47,43.7-66.7,65.55C156.86,198.54,156,200.35,152.92,199.69Z"/></g></g></svg>