<svg xmlns="http://www.w3.org/2000/svg" viewBox="0 0 403.85 403.85"><defs><style>.cls-1{fill:#031f3b;}.cls-2{fill:#5ab2e8;}</style></defs><g id="Capa_2" data-name="Capa 2"><g id="Capa_1-2" data-name="Capa 1"><rect class="cls-1" width="403.85" height="403.85" rx="65.48"/><path class="cls-2" d="M90.44,118.53H142c36.37,0,63.31,12.63,63.31,50.49,0,36.52-27,53.1-62.3,53.1H119.49v60.2h-29Zm50.19,80.35c24.44,0,36.06-9.73,36.06-29.86,0-20.33-12.72-27.24-37.06-27.24H119.49v57.1Z"/><path class="cls-2" d="M219,268.19l13.43-18.34c10.92,8.53,21.48,13.73,34,13.73,13.43,0,19.74-6.3,19.74-14.73,0-10.31-13.33-14.92-26.45-19.92-16.12-6.07-34.56-15.33-34.56-35.87,0-21.33,17.23-36.76,44.78-36.76,17.13,0,30.85,6.95,40.87,14.72l-13.22,17.74C289,182.44,280.3,178,270.63,178c-12.37,0-18.23,5.91-18.23,13.62,0,9.72,12.42,13.41,25.74,18.33,16.63,6.22,35.27,14.23,35.27,37.17,0,21.13-16.73,38.15-47.79,38.15C248.79,285.31,231.06,278.12,219,268.19Z"/></g></g></svg>