<svg xmlns="http://www.w3.org/2000/svg" viewBox="0 0 403.85 403.85"><defs><style>.cls-1{fill:#3f5463;}.cls-2{fill:#fff;}</style></defs><g id="Capa_2" data-name="Capa 2"><g id="Capa_1-2" data-name="Capa 1"><rect class="cls-1" width="403.85" height="403.85" rx="65.48"/><path class="cls-2" d="M93,211.19V192.9c.54-3.66,1-7.33,1.64-11,10.66-56.87,65.16-97.89,125.77-87.36,59.23,10.28,98.24,65.19,89.2,124.66-6.3,41.44-37.84,76.83-78.3,87.9A149.11,149.11,0,0,1,211,310.92H192.7c-2.65-.37-5.3-.72-7.95-1.13-42-6.48-77.08-38-88.16-79A148.8,148.8,0,0,1,93,211.19Zm84.43,49.89c.44-.92.66-1.29.8-1.68q10-29.94,20-59.87a4.8,4.8,0,0,0-.12-3.36c-4.55-12.4-9.11-24.79-13.56-37.22a3.56,3.56,0,0,0-3.57-2.78c-2.67-.17-5.35-.42-8-.85a3.92,3.92,0,0,1-3.36-4.38,4.08,4.08,0,0,1,4.16-3.9,37.11,37.11,0,0,1,4.35.1,257.21,257.21,0,0,0,30.66.77c5.73-.19,11.44-.66,17.16-.86,3-.11,4.65,1.82,4.38,4.65-.21,2.17-1.71,3.54-4.31,3.81s-5.06.41-7.58.7-2.64.43-1.83,2.84q16.63,49.5,33.3,99c.19.56.15,1.3,1,1.57a5.85,5.85,0,0,0,.39-.8q6.84-22.71,13.65-45.43c2.55-8.52,3.67-17.14,1.8-26-1.66-7.81-5.41-14.64-9.56-21.33-3-4.88-5.87-9.84-6.85-15.65-1.61-9.49,4.24-18.66,13.22-20.56,1-.21,2-.3,3-.46a2.43,2.43,0,0,0-.29-.7,14.3,14.3,0,0,0-1.27-1.19c-21.29-17.65-45.75-25.35-73.23-22.5-28.79,3-51.67,16.65-68.95,39.78-.63.85-2,1.8-1.5,2.7.54,1.07,2.11.48,3.22.51,9.22.22,18.4-.58,27.61-1,2.93-.12,4.63,1.34,4.82,3.86s-1.48,4.27-4.25,4.59c-2.37.27-4.77.38-7.15.62-3.31.33-3.31.36-2.24,3.53q13.33,39.62,26.65,79.21C172.36,246.06,174.78,253.27,177.4,261.08Zm26.5-48.83-.53,0c-.2.46-.44.9-.6,1.36Q189,253.57,175.26,293.47c-.66,1.9-.16,2.55,1.67,3a98.42,98.42,0,0,0,54.31-1.31c2.62-.82,2.63-.84,1.67-3.46l-24.54-67.25Zm-91.2-48.62-.78.07c-11,27.57-10.54,54.89,2.49,81.79,8.81,18.19,33.54,42.47,44,43.42Q135.52,226.18,112.7,163.63Zm175.59-6.31c.1,1.48.24,3,.3,4.44.48,11.62-1.77,22.78-5.58,33.71q-15.33,43.86-30.52,87.77a3,3,0,0,0-.31,2.52c21.44-13.42,36.21-31.89,43.28-56.11C302.73,204.7,300.25,180.51,288.29,157.32Z"/></g></g></svg>