<svg xmlns="http://www.w3.org/2000/svg" viewBox="0 0 403.85 403.85"><defs><style>.cls-1{fill:#f71201;}.cls-2{fill:#fff;}</style></defs><g id="Capa_2" data-name="Capa 2"><g id="Capa_1-2" data-name="Capa 1"><rect class="cls-1" width="403.85" height="403.85" rx="65.48"/><path class="cls-2" d="M145.78,320.89H144c-.27-.86-.53-1.72-.82-2.57-9.51-28.35-20-56.34-30.25-84.42a23.58,23.58,0,0,1-1.5-5c-1.83-14-3.64-28-5.53-42q-5.16-38-10.46-76.05c-.3-2.15.35-2.8,2.34-3,5.14-.59,10.27-1.34,15.4-2l43.31-5.63c13.4-1.74,26.8-3.43,40.19-5.2,12.5-1.66,25-3.41,37.47-5.13a4.91,4.91,0,0,1,4,1.07q34.7,27.71,69.44,55.37a3.57,3.57,0,0,1,1.38,3.71c-1.2,9.6-2.28,19.22-3.41,28.84q-1.9,16.2-3.82,32.41-2.15,18.12-4.27,36.22c-1.13,9.62-2.31,19.23-3.36,28.85a3.56,3.56,0,0,1-3,3.49q-55.18,15.55-110.33,31.22C169.07,314.42,157.42,317.64,145.78,320.89ZM241,158.9c.37,0,.75-.05,1.12-.12q22.8-4.17,45.61-8.36c.56-.1,1.38.11,1.6-.56.28-.83-.63-1.08-1.1-1.48-17.71-15-36.35-28.87-54.67-43.12a3.72,3.72,0,0,0-3.11-.84c-3.78.6-7.58,1-11.38,1.53q-21.3,2.8-42.62,5.61-20.41,2.66-40.85,5.23-11.16,1.42-22.33,2.79c-1.66.21-2.43.68-1.59,2.59,2.17,5,4.18,10,6.21,15a2.27,2.27,0,0,0,2.9,1.65c27.36-4.19,54.84-7.64,82.14-12.25,2.72-.46,5.2-.12,7.21,2.08,2.37,2.61,4.89,5.1,7.3,7.67,6.74,7.17,13.3,14.51,20.66,21.07C238.89,158.11,239.66,159,241,158.9Zm-33.71,3.68-.89.14c-26.55,4-52.88,9.37-79.42,13.54-2,.31-1.57,1.38-1.13,2.59,1.93,5.28,3.85,10.58,5.83,15.85,1.28,3.41,1.31,3.35,4.82,2.75,12.94-2.2,25.81-4.82,38.68-7.42a3.54,3.54,0,0,1,4.38,1.89c3.18,5.19,5.81,10.7,9.34,15.67a3.15,3.15,0,0,0,3.75,1.53c14.21-3.14,28.45-6.17,42.68-9.24,2.32-.49,2.41-.75,1-2.68-8.5-11.57-17.8-22.49-27-33.5C208.76,163.06,208.25,162.37,207.25,162.58ZM148.3,261.71c.25,0,.41,0,.55-.06l41.77-10c1.23-.29,1.3-1.09.81-2.06q-4.6-9-9.22-18a2.64,2.64,0,0,0-3.38-1.42c-12.26,3.22-24.7,5.63-37.08,8.34-1.69.37-2,1.13-1.54,2.68,1.88,6.49,4.23,12.82,6.44,19.2C147,261.26,147.33,261.92,148.3,261.71Z"/></g></g></svg>